<svg width="21" height="21" viewBox="0 0 21 21" fill="none" xmlns="http://www.w3.org/2000/svg">
<path d="M15.375 1.79391C15.6267 1.54221 15.9255 1.34255 16.2544 1.20633C16.5832 1.07011 16.9357 1 17.2917 1C17.6476 1 18.0001 1.07011 18.329 1.20633C18.6578 1.34255 18.9566 1.54221 19.2083 1.79391C19.46 2.04561 19.6597 2.34442 19.7959 2.67328C19.9321 3.00215 20.0022 3.35462 20.0022 3.71058C20.0022 4.06653 19.9321 4.41901 19.7959 4.74787C19.6597 5.07673 19.46 5.37554 19.2083 5.62724L6.27083 18.5647L1 20.0022L2.4375 14.7314L15.375 1.79391Z" stroke="#47ADFF" stroke-width="2" stroke-linecap="round" stroke-linejoin="round"/>
</svg>
